PathFileType	4	(X/Y/Z)	C:\Users\chris\Documents\GitHub\baseballds\vids\pitch1_Sports2D\pitch1_Sports2D_m_person00.trc
DataRate	CameraRate	NumFrames	NumMarkers	Units	OrigDataRate	OrigDataStartFrame	OrigNumFrames
30	30	10	22	m	30	115	154
Frame#	Time	Hip			RHip			RKnee			RAnkle			RBigToe			RSmallToe			RHeel			LHip			LKnee			LAnkle			LBigToe			LSmallToe			LHeel			Neck			Head			Nose			RShoulder			RElbow			RWrist			LShoulder			LElbow			LWrist		
		X1	Y1	Z1	X2	Y2	Z2	X3	Y3	Z3	X4	Y4	Z4	X5	Y5	Z5	X6	Y6	Z6	X7	Y7	Z7	X8	Y8	Z8	X9	Y9	Z9	X10	Y10	Z10	X11	Y11	Z11	X12	Y12	Z12	X13	Y13	Z13	X14	Y14	Z14	X15	Y15	Z15	X16	Y16	Z16	X17	Y17	Z17	X18	Y18	Z18	X19	Y19	Z19	X20	Y20	Z20	X21	Y21	Z21	X22	Y22	Z22
115	3.8333333333333335	1.9521119258206898	0.7999206221017675	0.0	1.842988035875943	0.7597395382039852	0.0	1.7306248009856855	0.36738534009917845	0.0	1.6192280217640347	0.11190652870633563	0.0	1.6003869141462552	-0.03766800746584173	0.0	1.5400392159847216	-0.006253521800697687	0.0	1.6241478108646998	0.09159305493552305	0.0	2.06642457302613	0.8035450353326146	0.0	2.1837018704093762	0.40561046960648034	0.0	2.3208816003687414	0.011363083059509196	0.0	2.263307178957635	-0.12648269586239277	0.0	2.345785657478829	-0.11672800001245391	0.0	2.3520022626590937	-0.048393086581415556	0.0	1.7685587459936654	1.2642612454291442	0.0	1.7734995512391485	1.5402116398101278	0.0	1.902099844654643	1.3847759172048395	0.0	1.6072870955006289	1.133689809800191	0.0	1.5473885453741194	0.8515264248784914	0.0	1.5041130399483051	0.5768096805255667	0.0	1.9685841167240028	1.2871685250338483	0.0	2.22838536702106	1.2106152623036244	0.0	2.4400946686434954	1.125194084749635	0.0
116	3.8666666666666667	1.9866626097955364	0.7718478462453349	0.0	1.873442952487532	0.7251467623053136	0.0	1.735401414996262	0.36423084002306716	0.0	1.6174807545853735	0.11181040132926166	0.0	1.5961794546690178	-0.03945419298662197	0.0	1.5376471898524	-0.007409034622438203	0.0	1.6198036278900705	0.09314585906686235	0.0	2.108471692112621	0.7717555566515315	0.0	2.2785698204499134	0.40143854142749663	0.0	2.4756090071700405	0.03368773040553426	0.0	2.494330957096021	-0.09068484899572649	0.0	2.5634304227505944	-0.06870445883338	0.0	2.4948256083613214	-0.02383448027230474	0.0	1.815108305489805	1.2412543250942571	0.0	1.8237619978242983	1.5114023922677733	0.0	1.9547112650530316	1.363902588504614	0.0	1.651311206933546	1.1068480798641382	0.0	1.5605951520566101	0.8289269605770059	0.0	1.473548237835112	0.560242125554098	0.0	2.0200055322028097	1.2693966302829585	0.0	2.279009404876102	1.249216344964521	0.0	2.5298106218072154	1.2533549834631088	0.0
117	3.9	2.0298145863826473	0.7472869742018703	0.0	1.9124151618449543	0.6946326435278614	0.0	1.7510531709713444	0.3607260283695009	0.0	1.6167261331555491	0.11400882211637432	0.0	1.5930220986622856	-0.04007840627776504	0.0	1.5320618676458015	-0.007824863043575074	0.0	1.6135515313062871	0.09609618738146265	0.0	2.155172341115803	0.7430039323272257	0.0	2.3779605088484503	0.39540542060642414	0.0	2.631569376865778	0.057313981130062905	0.0	2.742560518380536	-0.042207442672923194	0.0	2.786393403413832	-0.009861927211347004	0.0	2.640109757851141	0.0024490461913367345	0.0	1.8738442742932624	1.22346872583986	0.0	1.8872433097408676	1.4854035189340844	0.0	2.019005542178635	1.342227951412036	0.0	1.701721357546147	1.0894973295316681	0.0	1.5759887468171245	0.8361207402160328	0.0	1.4543507551932715	0.5788958485384939	0.0	2.0834472887841744	1.2560257528493564	0.0	2.339893570999998	1.2979408367119367	0.0	2.599196110280084	1.380115253699192	0.0
118	3.933333333333333	2.0834323025406336	0.7297407560777385	0.0	1.9629646724745837	0.6755603885750354	0.0	1.7852888364028416	0.35463994487926875	0.0	1.6164137980775144	0.11665270876804638	0.0	1.5893764515924176	-0.041079806839261726	0.0	1.5249958159236345	-0.006899912640699926	0.0	1.6058380176874443	0.09818022129014382	0.0	2.2077328359542725	0.7237150499666056	0.0	2.4776944830055645	0.3899609030535835	0.0	2.78321942888878	0.07336196830532674	0.0	2.9646533750362245	0.012968927028485209	0.0	2.9788086943060685	0.047078629394487176	0.0	2.7902334651653034	0.019109144015434714	0.0	1.942309249005668	1.209628281741467	0.0	1.9585623300799606	1.4658519769845182	0.0	2.092281195311336	1.3258322108873237	0.0	1.7617787227666375	1.0825662960880402	0.0	1.5969789696793872	0.8728478403227601	0.0	1.4590053017114135	0.6222384736789748	0.0	2.155090921949388	1.2443009292283116	0.0	2.410108322697401	1.3437859768228217	0.0	2.657381699572006	1.4906076655649931	0.0
119	3.966666666666667	2.1469973829791447	0.7192156484858663	0.0	2.025323776241619	0.6683741979469634	0.0	1.8402726761118677	0.3428895777883504	0.0	1.6165949469836194	0.11536600446625116	0.0	1.5836050430338775	-0.043608383445360645	0.0	1.5212336557576	-0.005766850623352428	0.0	1.600160831006451	0.09745589926518534	0.0	2.2686836474281877	0.7154611125432102	0.0	2.573426365891274	0.3944902257811734	0.0	2.918870389627423	0.08013535084523951	0.0	3.12984342858842	0.06151362549264647	0.0	3.121382285587696	0.08921132025351132	0.0	2.931153419730891	0.02209216619553396	0.0	2.0182635133681237	1.199386488517945	0.0	2.031272761946286	1.4563475793369627	0.0	2.16932837949905	1.3236970036636584	0.0	1.8339578037542552	1.0885829661814639	0.0	1.6288840088263303	0.9365877649301831	0.0	1.4981424319212766	0.6815849110725569	0.0	2.2301824471153084	1.231834242100054	0.0	2.485081929541885	1.3700205926628592	0.0	2.7160292637724557	1.5675025230953776	0.0
120	4.0	2.2199149602867525	0.7125891404443764	0.0	2.0977411014121343	0.6640797989719941	0.0	1.911178682572335	0.32150044349456797	0.0	1.6203288078875704	0.10877803886267502	0.0	1.5762699875081265	-0.04738448304810932	0.0	1.5218653954795365	-0.00531386115739729	0.0	1.6004470818735415	0.09483476513958874	0.0	2.341252608012776	0.7127329822602484	0.0	2.6678971054697405	0.4131770540104331	0.0	3.0197919907007416	0.08099813413275497	0.0	3.2303041565087685	0.09168122102380728	0.0	3.214293669792295	0.11153328295003068	0.0	3.0336792843046942	0.017863793118276832	0.0	2.098032327145203	1.1963949460762082	0.0	2.1041831236556092	1.4562754081602207	0.0	2.2462599424272516	1.3360427318603143	0.0	1.9131853037665187	1.1075468140470501	0.0	1.674385820407031	1.0154094765664492	0.0	1.5781111522844558	0.7687146141538944	0.0	2.3055541007487013	1.2218218142611472	0.0	2.5606307086081936	1.367989925888452	0.0	2.7821301528918694	1.5934276239775202	0.0
121	4.033333333333333	2.3032804246483334	0.7059390457968551	0.0	2.181027035450943	0.6538080098633348	0.0	1.9913268724490427	0.29040097589268543	0.0	1.6379325587352476	0.10271471745479956	0.0	1.5701300237482398	-0.051691978783869406	0.0	1.5266040256430653	-0.0045432696225982385	0.0	1.6150406914035873	0.09522898699388964	0.0	2.4267663516588294	0.7069054604113427	0.0	2.768030976926934	0.438563103371065	0.0	3.0709879032348306	0.07739946533302104	0.0	3.275183320216488	0.0945431723085523	0.0	3.262685105669128	0.11019400302185166	0.0	3.07674073098634	0.011677585198341969	0.0	2.1785188298192897	1.203644634754842	0.0	2.182310329128128	1.4630308184671514	0.0	2.3241328136129877	1.3523596033502339	0.0	1.9923277015301641	1.1326206133780685	0.0	1.7338429875045838	1.0863268014533036	0.0	1.6920499874326904	0.9070481834786224	0.0	2.382113659059418	1.2203585338718137	0.0	2.6333056240357124	1.3371492259940303	0.0	2.849388921028293	1.5507628803772515	0.0
122	4.066666666666666	2.3961618387226484	0.6960052862256283	0.0	2.2757853833037567	0.6375569629375228	0.0	2.075950362384368	0.2589305979338862	0.0	1.6800245478306874	0.10737227249892539	0.0	1.571384217456302	-0.05333244057815198	0.0	1.539283450115232	-0.0012088389304303968	0.0	1.6539171860367416	0.1076630031655595	0.0	2.5205684878600634	0.69368901572467	0.0	2.87147504783368	0.45827867952021123	0.0	3.0784356986509676	0.06981895392828938	0.0	3.2833125153522102	0.06399564145009157	0.0	3.274445617595112	0.08080902436634697	0.0	3.068342195349536	0.0043347447180914975	0.0	2.263855654307044	1.2171338978667547	0.0	2.2697753947973007	1.474617452680423	0.0	2.4077160897284227	1.3635743868039913	0.0	2.0757038602537823	1.151198131509831	0.0	1.80527564366421	1.1276026467826352	0.0	1.8219685215081365	1.078516137295745	0.0	2.4679293930223123	1.2253656309973087	0.0	2.7054844132001215	1.2757313229410783	0.0	2.9048435696112462	1.434206994650397	0.0
123	4.1	2.4921437516297646	0.6813711925509156	0.0	2.376873922058601	0.6213093369743116	0.0	2.160508612395271	0.23952308984010193	0.0	1.7441747698314192	0.12942505550582797	0.0	1.5905942721751727	-0.044007690249727144	0.0	1.567362950160934	0.009699772742580454	0.0	1.7147042899157356	0.14026107174932687	0.0	2.6122148082631247	0.6742564504237036	0.0	2.9624494491741133	0.4681180001586332	0.0	3.0707261607712493	0.0615986341019045	0.0	3.2752030559244476	0.013484714476616446	0.0	3.267184283726193	0.034670786584934	0.0	3.042848198502772	-0.003115518057354788	0.0	2.364446368132727	1.2280023036452616	0.0	2.366539168542396	1.4878744565513762	0.0	2.502479399352891	1.371664812362713	0.0	2.180280891475846	1.1543692858388213	0.0	1.8859678038942103	1.1348700412538426	0.0	1.9591157041568117	1.2200047681483568	0.0	2.5697724897312133	1.2222518587629283	0.0	2.7791394122291555	1.1777061640260555	0.0	2.943524401679308	1.2653253785536984	0.0
124	4.133333333333333	2.582333458331725	0.6654236415849462	0.0	2.476428418776863	0.6111351729825575	0.0	2.2413442859851744	0.2326205350887581	0.0	1.8195484762200202	0.16561987884306276	0.0	1.6392797904949756	-0.015613234890861812	0.0	1.6200612343523346	0.0347503680521901	0.0	1.7866342992579167	0.19118127561194426	0.0	2.6930774220278257	0.6519379996984666	0.0	3.024684171352478	0.4749878114582074	0.0	3.0716232664405734	0.05720437839361571	0.0	3.265448114604137	-0.025877242802729964	0.0	3.260196693988043	-0.0032005617473517723	0.0	3.0297522795717593	-0.0091295991358411	0.0	2.4816823246993285	1.2334050248005917	0.0	2.472087437876138	1.4954587251595395	0.0	2.609324502056671	1.378700959552007	0.0	2.3163971583354797	1.1542905313748029	0.0	1.988631285896759	1.1332361334806775	0.0	2.0978565181637787	1.2932228463052104	0.0	2.673511940617576	1.2000246981523857	0.0	2.8336574938400814	1.0463910517391757	0.0	2.9650227386458905	1.0820998276669023	0.0
